<?xml version="1.0" standalone="no"?>
<!DOCTYPE svg PUBLIC "-//W3C//DTD SVG 20010904//EN"
 "http://www.w3.org/TR/2001/REC-SVG-20010904/DTD/svg10.dtd">
<svg version="1.0" xmlns="http://www.w3.org/2000/svg"
 width="260.000000pt" height="260.000000pt" viewBox="0 0 260.000000 260.000000"
 preserveAspectRatio="xMidYMid meet">
<metadata>
Created by potrace 1.14, written by Peter Selinger 2001-2017
</metadata>
<g transform="translate(0.000000,260.000000) scale(0.100000,-0.100000)"
fill="#000000" stroke="none">
<path d="M1140 2590 c-233 -30 -466 -128 -642 -269 -252 -203 -405 -452 -474
-772 -28 -130 -26 -381 5 -519 58 -262 181 -483 372 -665 181 -173 381 -281
624 -336 144 -32 406 -32 550 0 512 116 889 501 1001 1022 26 118 26 380 0
498 -69 320 -222 569 -474 772 -143 115 -323 202 -512 245 -117 27 -337 39
-450 24z m212 -541 c12 -7 60 -92 123 -224 l103 -212 49 -7 c71 -10 365 -56
389 -61 11 -3 33 -14 47 -26 22 -17 27 -29 27 -65 0 -44 -1 -45 -165 -206
-130 -127 -165 -167 -165 -187 0 -14 16 -120 35 -235 30 -187 32 -213 20 -242
-15 -37 -41 -54 -81 -54 -24 0 -141 57 -350 171 -39 22 -76 39 -83 39 -8 0
-70 -31 -140 -69 -276 -151 -300 -160 -348 -126 -43 30 -43 65 -3 306 l38 224
-169 171 c-158 159 -169 173 -169 208 0 41 32 82 72 90 25 5 313 51 391 62
l49 7 102 211 c107 221 117 234 179 235 16 1 38 -4 49 -10z"/>
</g>
</svg>
